<svg  version="1.0" xmlns="http://www.w3.org/2000/svg"  width="300.000000pt" height="245.000000pt" viewBox="0 0 300.000000 245.000000"  preserveAspectRatio="xMidYMid meet">  <g transform="translate(0.000000,245.000000) scale(0.100000,-0.100000)" fill="#fd790d" stroke="none"> <path d="M1500 2409 c-34 -14 -66 -45 -80 -80 -22 -52 -1 -77 212 -251 l200 -163 -604 -7 c-430 -6 -614 -11 -642 -20 -92 -29 -147 -122 -113 -194 32 -66 45 -69 400 -72 174 -2 317 -6 316 -10 0 -4 -19 -21 -42 -38 -39 -28 -668 -508 -927 -706 -63 -49 -127 -107 -142 -129 -114 -169 54 -336 237 -235 22 12 112 81 200 153 88 72 219 179 290 238 l130 107 6 -100 c25 -401 356 -742 802 -827 103 -20 302 -19 407 1 331 62 614 279 737 564 55 128 67 190 67 340 0 109 -4 151 -22 219 -40 147 -127 295 -237 405 -51 51 -950 747 -1024 793 -39 25 -124 30 -171 12z m664 -819 c188 -65 340 -217 387 -388 22 -79 25 -205 5 -277 -39 -149 -157 -290 -303 -363 -209 -103 -455 -96 -651 20 -192 114 -303 334 -274 543 31 220 196 400 432 472 105 32 301 28 404 -7z"/> <path d="M1841 1425 c-125 -35 -222 -118 -261 -223 -30 -79 -25 -195 12 -267 33 -65 113 -139 186 -173 51 -24 68 -27 172 -27 110 0 118 1 182 33 290 143 272 529 -30 643 -74 27 -190 34 -261 14z"/> </g> </svg> 